<?xml version="1.0" encoding="utf-8"?>
<!-- Generator: Adobe Illustrator 16.0.0, SVG Export Plug-In . SVG Version: 6.00 Build 0)  -->
<!DOCTYPE svg PUBLIC "-//W3C//DTD SVG 1.1//EN" "http://www.w3.org/Graphics/SVG/1.1/DTD/svg11.dtd">
<svg version="1.1" id="Calque_1" xmlns="http://www.w3.org/2000/svg" xmlns:xlink="http://www.w3.org/1999/xlink" x="0px" y="0px"
	 width="595.28px" height="91.428px" viewBox="0 0 595.28 91.428" enable-background="new 0 0 595.28 91.428" xml:space="preserve">
<g>
	<path d="M45.711,59.458c0.633-0.188,1.102-0.328,1.406-0.422c5.414-1.664,9.293-2.496,11.637-2.496
		c1.758,0,2.637,0.656,2.637,1.969c0,0.516-0.199,0.973-0.598,1.371c-0.399,0.399-0.844,0.598-1.336,0.598
		c-0.234,0-0.575-0.035-1.02-0.105c-0.375-0.07-0.68-0.105-0.914-0.105c-1.383,0-3.199,0.316-5.449,0.949
		c-0.821,0.258-2.403,0.914-4.746,1.969c-1.57,0.703-2.86,1.055-3.867,1.055c-0.726,0-1.324-0.339-1.793-1.02
		C41.223,62.587,41,61.919,41,61.216c0-0.867,0.48-2.332,1.441-4.395c2.93-6.375,6.07-12.094,9.422-17.156
		c4.804-7.265,8.531-12.598,11.18-15.996c0.726-0.914,1.453-1.84,2.18-2.777c1.148-1.547,2.145-2.32,2.988-2.32
		c0.422,0,0.796,0.164,1.125,0.492c0.304,0.329,0.457,0.668,0.457,1.02c0,0.516-0.399,1.313-1.195,2.391
		c-0.164,0.211-1.137,1.489-2.918,3.832c-3.328,4.383-5.807,7.734-7.436,10.055c-1.629,2.32-3.37,5.004-5.221,8.051
		C49.39,50.388,46.953,55.404,45.711,59.458z"/>
	<path d="M70.264,55.662v0.633c0,0.516,0.128,0.961,0.387,1.336c0.585,0.867,1.547,1.301,2.883,1.301c2.93,0,6.316-2.25,10.16-6.75
		c0.68-0.773,1.253-1.16,1.723-1.16c0.258,0,0.492,0.129,0.703,0.387c0.141,0.188,0.211,0.364,0.211,0.527
		c0,0.914-1.125,2.461-3.375,4.641c-1.758,1.711-3.633,3.106-5.625,4.184c-1.992,1.078-3.844,1.617-5.555,1.617
		c-1.758,0-3.141-0.609-4.148-1.828c-0.68-0.844-1.02-1.992-1.02-3.445c0-3.96,1.863-7.84,5.59-11.637
		c3.023-3.094,5.66-4.641,7.91-4.641c0.609,0,1.16,0.188,1.652,0.563c0.609,0.492,0.914,1.137,0.914,1.934
		c0,1.243-0.575,2.766-1.723,4.57C78.584,51.642,75.022,54.232,70.264,55.662z M71.038,52.919c1.64-0.563,2.93-1.195,3.867-1.898
		c1.64-1.266,2.941-2.695,3.902-4.289c0.352-0.563,0.527-1.066,0.527-1.512c0-0.469-0.223-0.703-0.668-0.703
		c-0.61,0-1.477,0.457-2.602,1.371C74.049,47.505,72.374,49.849,71.038,52.919z"/>
	<path d="M144.155,17.201c1.57,0,2.777,0.563,3.621,1.688c0.68,0.891,1.02,1.969,1.02,3.234c0,2.273-0.762,4.864-2.285,7.77
		c-1.336,2.508-3,4.758-4.992,6.75c-1.313,1.289-2.344,1.934-3.094,1.934c-0.492,0-0.949-0.246-1.371-0.738
		c-0.305-0.352-0.457-0.75-0.457-1.195c0-0.82,0.715-1.758,2.145-2.813c2.016-1.5,3.621-3.141,4.816-4.922
		c1.758-2.578,2.637-4.758,2.637-6.539c0-0.726-0.158-1.266-0.475-1.617s-0.791-0.527-1.424-0.527c-1.289,0-3.117,0.938-5.484,2.813
		c-2.695,2.109-5.543,4.98-8.543,8.613c-3.82,4.618-6.727,9.164-8.719,13.641c-2.063,4.641-3.094,8.602-3.094,11.883
		c0,1.57,0.457,2.906,1.371,4.008c1.007,1.243,2.238,1.863,3.691,1.863c2.531,0,5.718-1.969,9.563-5.906
		c1.148-1.195,2.543-2.93,4.184-5.203c1.078-1.453,1.77-2.484,2.074-3.094c0.352-0.68,0.761-1.02,1.23-1.02
		c0.515,0,0.773,0.246,0.773,0.738c0,1.055-1.313,3.422-3.938,7.102c-2.18,3.071-4.583,5.578-7.207,7.523
		c-2.953,2.18-5.743,3.27-8.367,3.27c-2.742,0-4.864-1.23-6.363-3.691c-0.961-1.57-1.441-3.363-1.441-5.379
		c0-5.063,2.391-11.449,7.172-19.16c4.078-6.562,8.379-11.848,12.902-15.855C138.015,18.923,141.366,17.201,144.155,17.201z"/>
	<path d="M159.744,39.736c1.921,0,2.883,1.172,2.883,3.516c0,3.117-1.441,7.066-4.324,11.848c-3.141,5.18-6.176,7.77-9.105,7.77
		c-1.359,0-2.355-0.633-2.988-1.898c-0.328-0.633-0.492-1.394-0.492-2.285c0-3,1.032-6.258,3.094-9.773
		c1.921-3.257,4.184-5.789,6.785-7.594C157.119,40.263,158.501,39.736,159.744,39.736z M156.087,53.025
		c-0.586-0.469-0.879-0.832-0.879-1.09c0-0.188,0.375-0.703,1.125-1.547c2.109-2.367,3.164-4.277,3.164-5.73
		c0-0.188-0.059-0.375-0.176-0.563c-0.188-0.352-0.48-0.527-0.879-0.527c-0.75,0-1.852,0.727-3.305,2.18
		c-1.875,1.875-3.305,3.809-4.289,5.801c-1.148,2.273-1.723,4.161-1.723,5.66c0,0.399,0.105,0.75,0.316,1.055
		c0.304,0.422,0.691,0.633,1.16,0.633c1.125,0,2.332-0.844,3.621-2.531c0.563-0.703,1.02-1.429,1.371-2.18
		C155.947,53.435,156.11,53.048,156.087,53.025z"/>
	<path d="M172.238,50.74c-0.703,1.828-1.23,3.305-1.582,4.43s-0.527,1.911-0.527,2.355c0,0.586,0.281,0.879,0.844,0.879
		c0.844,0,1.934-0.796,3.27-2.391c0.633-0.773,1.57-2.167,2.813-4.184c0.492-0.796,1.007-1.195,1.547-1.195
		c0.609,0,0.914,0.293,0.914,0.879c0,1.008-1.16,3.047-3.48,6.117c-2.414,3.211-4.653,4.816-6.715,4.816
		c-0.891,0-1.617-0.375-2.18-1.125c-0.398-0.539-0.598-1.195-0.598-1.969c0-1.313,0.399-3.129,1.195-5.449s1.98-5.145,3.551-8.473
		c4.031-8.46,8.144-15.434,12.34-20.918c3.352-4.406,6.129-6.609,8.332-6.609c0.703,0,1.277,0.27,1.723,0.809
		c0.469,0.54,0.703,1.16,0.703,1.863c0,3.282-2.93,8.742-8.789,16.383c-2.625,3.398-5.766,6.797-9.422,10.195
		C175.214,48.045,173.902,49.24,172.238,50.74z M174.734,45.15c4.875-4.171,9.234-9.445,13.078-15.82
		c1.992-3.305,2.988-5.496,2.988-6.574c0-0.515-0.223-0.773-0.668-0.773c-1.289,0-3.633,2.566-7.031,7.699
		C180.289,33.9,177.5,39.056,174.734,45.15z"/>
	<path d="M191.307,50.74c-0.703,1.828-1.23,3.305-1.582,4.43s-0.527,1.911-0.527,2.355c0,0.586,0.281,0.879,0.844,0.879
		c0.844,0,1.934-0.796,3.27-2.391c0.633-0.773,1.57-2.167,2.813-4.184c0.492-0.796,1.007-1.195,1.547-1.195
		c0.609,0,0.914,0.293,0.914,0.879c0,1.008-1.16,3.047-3.48,6.117c-2.414,3.211-4.653,4.816-6.715,4.816
		c-0.891,0-1.617-0.375-2.18-1.125c-0.398-0.539-0.598-1.195-0.598-1.969c0-1.313,0.399-3.129,1.195-5.449s1.98-5.145,3.551-8.473
		c4.031-8.46,8.144-15.434,12.34-20.918c3.352-4.406,6.129-6.609,8.332-6.609c0.703,0,1.277,0.27,1.723,0.809
		c0.469,0.54,0.703,1.16,0.703,1.863c0,3.282-2.93,8.742-8.789,16.383c-2.625,3.398-5.766,6.797-9.422,10.195
		C194.283,48.045,192.971,49.24,191.307,50.74z M193.803,45.15c4.875-4.171,9.234-9.445,13.078-15.82
		c1.992-3.305,2.988-5.496,2.988-6.574c0-0.515-0.223-0.773-0.668-0.773c-1.289,0-3.633,2.566-7.031,7.699
		C199.358,33.9,196.568,39.056,193.803,45.15z"/>
	<path d="M207.353,55.662v0.633c0,0.516,0.128,0.961,0.387,1.336c0.585,0.867,1.547,1.301,2.883,1.301c2.93,0,6.316-2.25,10.16-6.75
		c0.68-0.773,1.253-1.16,1.723-1.16c0.258,0,0.492,0.129,0.703,0.387c0.141,0.188,0.211,0.364,0.211,0.527
		c0,0.914-1.125,2.461-3.375,4.641c-1.758,1.711-3.633,3.106-5.625,4.184c-1.992,1.078-3.844,1.617-5.555,1.617
		c-1.758,0-3.141-0.609-4.148-1.828c-0.68-0.844-1.02-1.992-1.02-3.445c0-3.96,1.863-7.84,5.59-11.637
		c3.023-3.094,5.66-4.641,7.91-4.641c0.609,0,1.16,0.188,1.652,0.563c0.609,0.492,0.914,1.137,0.914,1.934
		c0,1.243-0.575,2.766-1.723,4.57C215.672,51.642,212.11,54.232,207.353,55.662z M208.126,52.919c1.64-0.563,2.93-1.195,3.867-1.898
		c1.64-1.266,2.941-2.695,3.902-4.289c0.352-0.563,0.527-1.066,0.527-1.512c0-0.469-0.223-0.703-0.668-0.703
		c-0.61,0-1.477,0.457-2.602,1.371C211.137,47.505,209.462,49.849,208.126,52.919z"/>
	<path d="M240.694,40.615c1.851,0,2.777,0.973,2.777,2.918c0,1.711-0.668,3.434-2.004,5.168c-1.032,1.313-1.934,1.969-2.707,1.969
		c-0.656,0-0.984-0.375-0.984-1.125c0-0.398,0.093-0.715,0.281-0.949c0.07-0.093,0.352-0.363,0.844-0.809
		c0.422-0.398,0.855-0.996,1.301-1.793c0.304-0.539,0.457-0.972,0.457-1.301c0-0.375-0.211-0.563-0.633-0.563
		c-0.492,0-1.243,0.387-2.25,1.16c-1.594,1.243-3.188,3.188-4.781,5.836c-1.641,2.766-2.461,4.945-2.461,6.539
		c0,0.516,0.152,0.973,0.457,1.371c0.445,0.61,1.042,0.914,1.793,0.914c1.477,0,3.222-0.914,5.238-2.742
		c1.71-1.57,3.152-3.141,4.324-4.711c0.609-0.867,1.137-1.301,1.582-1.301c0.258,0,0.492,0.118,0.703,0.352
		c0.188,0.234,0.281,0.469,0.281,0.703c0,0.867-1.113,2.555-3.34,5.063c-3.539,3.938-6.75,5.906-9.633,5.906
		c-1.735,0-3.059-0.621-3.973-1.863c-0.656-0.914-0.984-1.992-0.984-3.234c0-2.438,1.008-5.261,3.023-8.473
		c1.945-3.07,4.195-5.542,6.75-7.418C238.256,41.154,239.569,40.615,240.694,40.615z"/>
	<path d="M264.123,39.771c-1.524,2.368-2.93,5.016-4.219,7.945c-1.852,4.172-2.777,7.29-2.777,9.352
		c0,0.586,0.123,1.032,0.369,1.336c0.246,0.305,0.615,0.457,1.107,0.457c1.172,0,2.589-1.102,4.254-3.305
		c1.055-1.359,1.992-2.719,2.813-4.078c0.445-0.773,0.926-1.16,1.441-1.16c0.304,0,0.563,0.105,0.773,0.316
		c0.188,0.211,0.281,0.422,0.281,0.633c0,0.867-1.137,2.801-3.41,5.801c-2.719,3.609-5.203,5.414-7.453,5.414
		c-1.195,0-2.192-0.55-2.988-1.652c-0.492-0.703-0.738-1.699-0.738-2.988c0-2.835,0.82-6.14,2.461-9.914
		c0.398-0.937,1.5-3.199,3.305-6.785c-0.633,0.164-1.113,0.246-1.441,0.246c-0.492,0-0.926-0.117-1.301-0.352
		c-0.516-0.328-0.773-0.738-0.773-1.23c0-0.585,0.339-1.055,1.02-1.406c0.188-0.093,1.055-0.246,2.602-0.457
		c0.563-0.093,1.383-0.316,2.461-0.668c0.82-1.477,2.156-3.48,4.008-6.012c1.031-1.406,1.746-2.32,2.145-2.742
		c0.563-0.585,1.055-0.879,1.476-0.879c0.305,0,0.609,0.164,0.914,0.492c0.281,0.305,0.422,0.61,0.422,0.914
		c0,0.61-0.656,1.816-1.968,3.621c-0.867,1.172-1.512,2.122-1.934,2.848c2.601-0.703,4.464-1.055,5.589-1.055
		c1.289,0,1.934,0.54,1.934,1.617c0,0.54-0.223,0.938-0.668,1.195c-0.234,0.141-0.844,0.258-1.828,0.352
		c-0.398-0.023-2.168,0.422-5.308,1.336C265.822,39.221,264.966,39.49,264.123,39.771z"/>
	<path d="M281.645,41.353c0.398,0,0.727,0.153,0.984,0.457c0.188,0.258,0.281,0.516,0.281,0.773c0,0.422-0.34,1.125-1.02,2.109
		c-2.438,3.774-4.172,6.879-5.203,9.316c-1.102,2.508-2.074,5.086-2.918,7.734c-0.375,1.172-0.961,1.758-1.758,1.758
		c-0.469,0-0.844-0.188-1.125-0.563c-0.258-0.304-0.387-0.633-0.387-0.984c0-0.703,0.75-3.046,2.25-7.031
		c1.172-3.141,3.07-6.609,5.695-10.406c0.844-1.242,1.477-2.074,1.898-2.496C280.766,41.576,281.199,41.353,281.645,41.353z
		 M288.324,28.31c1.055,0,1.582,0.54,1.582,1.617c0,0.984-0.516,2.074-1.547,3.27c-0.984,1.148-1.934,1.723-2.848,1.723
		c-0.445,0-0.809-0.164-1.09-0.492c-0.281-0.304-0.422-0.68-0.422-1.125c0-1.125,0.621-2.32,1.863-3.586
		C286.777,28.779,287.598,28.31,288.324,28.31z"/>
	<path d="M291.326,45.818c3.586-7.734,7.09-14.027,10.512-18.879c2.32-3.281,4.242-5.672,5.766-7.172
		c1.055-1.055,1.957-1.582,2.707-1.582c0.281,0,0.527,0.094,0.738,0.281c0.328,0.234,0.492,0.551,0.492,0.949
		c0,0.516-0.41,1.254-1.23,2.215c-5.18,5.906-9.867,12.985-14.063,21.234c3.75-1.429,6.363-2.145,7.84-2.145
		c1.078,0,1.969,0.27,2.672,0.809c0.727,0.563,1.09,1.208,1.09,1.934c0,0.375-0.129,0.715-0.387,1.02
		c-0.352,0.445-0.809,0.668-1.371,0.668c-0.398,0-1.184-0.328-2.355-0.984c-0.328-0.164-0.75-0.246-1.266-0.246
		c-2.344,0-5.156,1.067-8.438,3.199c1.406,0.656,2.402,1.524,2.988,2.602c0.797,1.524,1.195,3.398,1.195,5.625
		c0,5.743-1.711,11.8-5.133,18.176c-1.477,2.719-2.906,4.781-4.289,6.188c-1.477,1.523-2.988,2.285-4.535,2.285
		c-1.172,0-2.121-0.563-2.848-1.688c-0.586-0.938-0.879-2.215-0.879-3.832c0-3.469,1.313-8.684,3.938-15.645
		c0.328-0.844,1.266-3.011,2.813-6.504c0.398-0.867,0.785-1.793,1.16-2.777c-0.188,0.047-0.363,0.07-0.527,0.07
		c-0.633,0-0.949-0.352-0.949-1.055C286.967,49.322,288.42,47.74,291.326,45.818z M292.521,50.423
		c-1.313,2.484-3.047,6.492-5.203,12.023c-2.227,5.648-3.34,10.031-3.34,13.148c0,0.609,0.152,1.148,0.457,1.617
		c0.328,0.469,0.715,0.703,1.16,0.703c1.453,0,3.363-2.438,5.73-7.313c2.672-5.438,4.008-10.418,4.008-14.941
		c0-1.758-0.34-3.082-1.02-3.973C294.057,51.337,293.459,50.916,292.521,50.423z"/>
	<path d="M346.164,36.396l1.406-0.246c5.18-0.984,8.789-1.477,10.828-1.477c1.477,0,2.215,0.598,2.215,1.793
		c0,0.75-0.293,1.254-0.879,1.512c-0.398,0.188-1.078,0.305-2.039,0.352c-6.07,0.375-10.688,1.09-13.852,2.145
		c-1.242,1.852-3.059,5.309-5.449,10.371c-1.383,2.953-2.461,5.684-3.234,8.191c0.539-0.188,1.066-0.375,1.582-0.563
		c3.469-1.172,6.023-1.934,7.664-2.285c2.18-0.422,4.23-0.633,6.152-0.633c1.266,0,2.203,0.153,2.813,0.457
		c0.539,0.258,0.809,0.75,0.809,1.477c0,0.727-0.328,1.208-0.984,1.441c-0.305,0.094-1.031,0.153-2.18,0.176
		c-6.211,0.329-11.742,1.852-16.594,4.57c-0.633,0.352-1.172,0.527-1.617,0.527c-0.656,0-1.242-0.339-1.758-1.02
		c-0.445-0.563-0.668-1.137-0.668-1.723c0-0.585,0.738-2.742,2.215-6.469c2.227-5.648,5.262-11.835,9.105-18.563
		c1.148-2.039,3.328-5.472,6.539-10.301c0.727-1.125,1.43-2.227,2.109-3.305c-0.938-0.234-1.406-0.855-1.406-1.863
		c0-0.75,0.375-1.301,1.125-1.652c1.219-0.563,3.563-1.113,7.031-1.652c5.18-0.796,9.574-1.195,13.184-1.195
		c2.039,0,3.059,0.54,3.059,1.617c0,0.75-0.352,1.383-1.055,1.898c-0.352,0.258-0.914,0.387-1.688,0.387
		c-0.047,0-0.316-0.012-0.809-0.035c-0.352,0-0.738,0-1.16,0c-1.688,0-4.125,0.176-7.313,0.527c-2.766,0.305-5.145,0.75-7.137,1.336
		c0.234,0.352,0.352,0.633,0.352,0.844c0,0.399-0.551,1.313-1.652,2.742l-1.688,2.602C348.777,31.943,347.102,34.615,346.164,36.396
		z"/>
	<path d="M383.619,57.208c1.945-5.789,4.242-11.308,6.891-16.559c2.086-4.101,4.887-9.246,8.402-15.434
		c2.602-4.57,4.313-7.3,5.133-8.191c0.82-0.891,1.664-1.336,2.531-1.336c0.75,0,1.125,0.329,1.125,0.984
		c0,0.352-0.164,0.809-0.492,1.371c-0.305,0.54-1.277,2.122-2.918,4.746c-5.414,8.813-9.363,16.055-11.848,21.727
		c-2.25,5.086-4.184,10.067-5.801,14.941c-0.586,1.758-1.23,3.059-1.934,3.902c-1.031,1.266-2.074,1.898-3.129,1.898
		c-0.961,0-1.57-0.691-1.828-2.074c-0.117-0.563-0.176-1.64-0.176-3.234c0-5.602,0.551-11.824,1.652-18.668
		c0.984-6,1.98-10.816,2.988-14.449c-2.25,2.484-5.613,7.688-10.09,15.609c-3.539,6.281-6.188,12.141-7.945,17.578
		c-0.727,2.25-1.254,3.645-1.582,4.184c-0.609,1.031-1.395,1.547-2.355,1.547c-0.398,0-0.738-0.164-1.02-0.492
		c-0.234-0.281-0.352-0.563-0.352-0.844c0-0.891,0.762-3.246,2.285-7.066c1.969-4.969,5.238-11.32,9.809-19.055
		c2.719-4.617,5.953-9.527,9.703-14.73c1.781-2.484,3.105-4.09,3.973-4.816c0.797-0.656,1.547-0.984,2.25-0.984
		c0.305,0,0.574,0.094,0.809,0.281c0.328,0.258,0.492,0.575,0.492,0.949c0,0.469-0.117,0.997-0.352,1.582
		c-1.125,2.883-2.285,6.879-3.48,11.988c-1.898,8.227-2.848,15.223-2.848,20.988C383.514,54.349,383.549,55.568,383.619,57.208z"/>
	<path d="M407.926,47.962c0.727,0,1.582,0.023,2.566,0.07c2.016,0.07,3.293,0.105,3.832,0.105c1.359,0,2.262,0.153,2.707,0.457
		c0.422,0.281,0.633,0.797,0.633,1.547c0,0.703-0.199,1.254-0.598,1.652c-0.234,0.211-0.516,0.316-0.844,0.316
		c-0.234,0-0.609-0.023-1.125-0.07c-0.867-0.093-3.164-0.141-6.891-0.141c-2.273,0-3.973,0.129-5.098,0.387
		c-0.539,0.118-0.949,0.176-1.23,0.176c-0.633,0-1.113-0.304-1.441-0.914c-0.164-0.304-0.246-0.656-0.246-1.055
		c0-1.218,0.563-1.957,1.688-2.215C402.723,48.068,404.738,47.962,407.926,47.962z"/>
	<path d="M449.529,22.404c-4.688,0.727-9.035,1.652-13.043,2.777c-0.844,0.305-1.5,0.457-1.969,0.457
		c-0.539,0-0.996-0.246-1.371-0.738c-0.234-0.281-0.352-0.609-0.352-0.984c0-1.007,0.727-1.746,2.18-2.215
		c3.891-1.172,8.473-2.25,13.746-3.234c6.609-1.195,12.961-1.793,19.055-1.793c2.063,0,3.445,0.129,4.148,0.387
		c0.656,0.234,0.984,0.68,0.984,1.336c0,1.102-0.809,1.746-2.426,1.934c-1.406,0.141-3.527,0.246-6.363,0.316
		c-5.648,0.188-9.516,0.54-11.602,1.055c0.586,0.234,0.879,0.598,0.879,1.09c0,0.516-0.375,1.324-1.125,2.426
		c-4.453,6.516-8.707,13.91-12.762,22.184c-3.094,6.281-5.355,11.86-6.785,16.734c-0.328,1.477-0.891,2.215-1.688,2.215
		c-0.727,0-1.336-0.375-1.828-1.125c-0.328-0.492-0.492-1.007-0.492-1.547c0-2.156,2.051-7.406,6.152-15.75
		c2.625-5.367,5.051-9.891,7.277-13.57c0.891-1.5,3.035-4.98,6.434-10.441L449.529,22.404z"/>
	<path d="M464.1,50.845c2.297-2.461,4.945-4.863,7.945-7.207c1.078-0.844,2.227-1.629,3.445-2.355
		c0.609-0.352,0.996-0.527,1.16-0.527c0.352,0,0.703,0.258,1.055,0.773c0.211,0.281,0.316,0.54,0.316,0.773
		c0,0.422-0.445,0.997-1.336,1.723c-2.391,1.898-3.586,3.328-3.586,4.289c0,0.54,0.305,0.809,0.914,0.809
		c1.008,0,2.742-0.832,5.203-2.496c0.422-0.281,0.773-0.422,1.055-0.422c0.188,0,0.375,0.094,0.563,0.281
		c0.211,0.211,0.316,0.434,0.316,0.668c0,0.703-0.984,1.781-2.953,3.234c-2.063,1.547-4.02,2.32-5.871,2.32
		c-0.75,0-1.441-0.199-2.074-0.598c-0.539-0.328-0.809-0.914-0.809-1.758c0-0.585,0.246-1.253,0.738-2.004
		c-1.852,1.313-4.031,3.563-6.539,6.75c-1.453,1.969-2.895,4.395-4.324,7.277c-0.539,1.078-1.207,1.617-2.004,1.617
		c-0.867,0-1.301-0.41-1.301-1.23c0-0.796,0.68-2.93,2.039-6.398c2.016-5.156,4.125-9.152,6.328-11.988
		c1.359-1.758,2.496-2.637,3.41-2.637c0.305,0,0.586,0.094,0.844,0.281c0.305,0.234,0.457,0.527,0.457,0.879
		s-0.234,0.844-0.703,1.477c-0.094,0.118-0.715,0.902-1.863,2.355C465.471,48.115,464.662,49.486,464.1,50.845z"/>
	<path d="M496.879,39.736c1.922,0,2.883,1.172,2.883,3.516c0,3.117-1.441,7.066-4.324,11.848c-3.141,5.18-6.176,7.77-9.105,7.77
		c-1.359,0-2.355-0.633-2.988-1.898c-0.328-0.633-0.492-1.394-0.492-2.285c0-3,1.031-6.258,3.094-9.773
		c1.922-3.257,4.184-5.789,6.785-7.594C494.254,40.263,495.637,39.736,496.879,39.736z M493.223,53.025
		c-0.586-0.469-0.879-0.832-0.879-1.09c0-0.188,0.375-0.703,1.125-1.547c2.109-2.367,3.164-4.277,3.164-5.73
		c0-0.188-0.059-0.375-0.176-0.563c-0.188-0.352-0.48-0.527-0.879-0.527c-0.75,0-1.852,0.727-3.305,2.18
		c-1.875,1.875-3.305,3.809-4.289,5.801c-1.148,2.273-1.723,4.161-1.723,5.66c0,0.399,0.105,0.75,0.316,1.055
		c0.305,0.422,0.691,0.633,1.16,0.633c1.125,0,2.332-0.844,3.621-2.531c0.563-0.703,1.02-1.429,1.371-2.18
		C493.082,53.435,493.246,53.048,493.223,53.025z"/>
	<path d="M513.732,43.744c0.961-0.609,1.676-1.031,2.145-1.266c0.961-0.469,1.898-0.703,2.813-0.703c1.031,0,1.805,0.299,2.32,0.896
		s0.773,1.494,0.773,2.689c0,1.641-0.574,3.609-1.723,5.906c-1.781,3.633-3.938,6.492-6.469,8.578
		c-2.133,1.758-4.137,2.637-6.012,2.637c-1.031,0-2.051-0.398-3.059-1.195c-3.211,6.492-6.082,13.113-8.613,19.863
		c-0.539,1.617-1.172,2.426-1.898,2.426c-0.352,0-0.703-0.234-1.055-0.703c-0.258-0.329-0.387-0.691-0.387-1.09
		c0-1.266,1.547-5.379,4.641-12.34c4.781-10.734,9.316-19.652,13.605-26.754c0.891-1.5,1.488-2.531,1.793-3.094
		c0.82-1.523,1.617-2.285,2.391-2.285c0.797,0,1.195,0.48,1.195,1.441c0,0.54-0.281,1.266-0.844,2.18
		C514.67,42.104,514.131,43.041,513.732,43.744z M505.822,58.333c0.516,0.54,1.16,0.809,1.934,0.809c2.18,0,4.594-1.934,7.242-5.801
		c0.984-1.429,1.77-2.895,2.355-4.395c0.469-1.195,0.703-2.097,0.703-2.707c0-0.422-0.1-0.738-0.299-0.949s-0.51-0.316-0.932-0.316
		c-1.102,0-2.449,0.762-4.043,2.285c-1.523,1.477-2.988,3.551-4.395,6.223C507.1,55.943,506.244,57.56,505.822,58.333z"/>
	<path d="M529.883,59.845c0.516,0,0.949,0.234,1.301,0.703c0.234,0.305,0.352,0.691,0.352,1.16c0,1.102-0.305,2.262-0.914,3.48
		c-0.633,1.289-1.465,1.934-2.496,1.934c-1.078,0-1.617-0.61-1.617-1.828s0.375-2.461,1.125-3.727
		C528.313,60.42,529.063,59.845,529.883,59.845z M552.734,18.08c0.516,0,0.914,0.211,1.195,0.633
		c0.234,0.352,0.352,0.75,0.352,1.195c0,0.961-0.703,2.766-2.109,5.414c-5.766,10.805-10.969,19.828-15.609,27.07
		c-0.75,1.195-1.219,1.992-1.406,2.391c-0.609,1.148-1.242,1.723-1.898,1.723c-0.469,0-0.879-0.269-1.23-0.809
		c-0.305-0.445-0.457-0.926-0.457-1.441c0-0.656,0.34-1.57,1.02-2.742c0.188-0.328,1.008-1.605,2.461-3.832
		c1.852-3.117,3.691-6.199,5.52-9.246c0.609-1.055,2.438-4.382,5.484-9.984c1.078-1.969,1.934-3.516,2.566-4.641
		c0.75-1.336,1.465-2.719,2.145-4.148C551.281,18.607,551.938,18.08,552.734,18.08z"/>
</g>
</svg>
